<?xml version="1.0" encoding="UTF-8" standalone="no"?>
<!-- Created with Inkscape (http://www.inkscape.org/) -->

<svg
   xmlns:dc="http://purl.org/dc/elements/1.1/"
   xmlns:cc="http://creativecommons.org/ns#"
   xmlns:rdf="http://www.w3.org/1999/02/22-rdf-syntax-ns#"
   xmlns:svg="http://www.w3.org/2000/svg"
   xmlns="http://www.w3.org/2000/svg"
   xmlns:sodipodi="http://sodipodi.sourceforge.net/DTD/sodipodi-0.dtd"
   xmlns:inkscape="http://www.inkscape.org/namespaces/inkscape"
   width="37.187977"
   height="43.969509"
   viewBox="0 0 9.8393186 11.633599"
   version="1.1"
   id="svg8"
   inkscape:version="0.91 r13725"
   sodipodi:docname="icon.svg">
  <defs
     id="defs2" />
  <sodipodi:namedview
     id="base"
     pagecolor="#ffffff"
     bordercolor="#666666"
     borderopacity="1.0"
     inkscape:pageopacity="0.0"
     inkscape:pageshadow="2"
     inkscape:zoom="8"
     inkscape:cx="25.308834"
     inkscape:cy="38.291853"
     inkscape:document-units="mm"
     inkscape:current-layer="text877-3-2-6"
     showgrid="false"
     inkscape:window-width="1920"
     inkscape:window-height="1035"
     inkscape:window-x="0"
     inkscape:window-y="-22"
     inkscape:window-maximized="0"
     units="px"
     fit-margin-top="0"
     fit-margin-left="0"
     fit-margin-right="0"
     fit-margin-bottom="0"
     objecttolerance="10000" />
  <metadata
     id="metadata5">
    <rdf:RDF>
      <cc:Work
         rdf:about="">
        <dc:format>image/svg+xml</dc:format>
        <dc:type
           rdf:resource="http://purl.org/dc/dcmitype/StillImage" />
        <dc:title></dc:title>
      </cc:Work>
    </rdf:RDF>
  </metadata>
  <g
     inkscape:label="レイヤー 1"
     inkscape:groupmode="layer"
     id="layer1"
     transform="translate(-0.30972429,-285.2301)">
    <g
       id="layer1-3"
       inkscape:label="レイヤー 1"
       transform="translate(101.69631,46.728632)">
      <g
         transform="translate(-73.550442,64.970889)"
         aria-label="WSIPROCESS "
         style="font-style:normal;font-variant:normal;font-weight:normal;font-stretch:normal;font-size:10.58333302px;line-height:0;font-family:'Tlwg Typo';-inkscape-font-specification:'Tlwg Typo';letter-spacing:0px;word-spacing:0px;fill:#000000;fill-opacity:1;stroke:none;stroke-width:0.26458332"
         id="text877-3-2-6"
         inkscape:export-filename="/home/metadata/path1814-326.png"
         inkscape:export-xdpi="300"
         inkscape:export-ydpi="300">
        <path
           inkscape:connector-curvature="0"
           style="font-style:normal;font-variant:normal;font-weight:normal;font-stretch:normal;font-family:'URW Bookman L';-inkscape-font-specification:'URW Bookman L';stroke-width:0.99999994"
           d="m -21.826769,173.9318 c -0.03029,0.002 -0.06093,0.007 -0.09147,0.015 l -0.473874,0.12713 c -0.244303,0.0655 -0.389463,0.31031 -0.325561,0.5488 l 0.59273,2.21175 a 1.4925813,1.4925813 0 0 1 1.275373,0.60875 l 0.0041,0.006 a 1.4925813,1.4925813 0 0 1 -0.332276,2.08308 1.4925813,1.4925813 0 0 1 -0.193271,0.11678 l 0.364834,1.36116 c 0.0639,0.23849 0.31225,0.37759 0.556556,0.31213 l 0.473871,-0.12661 c 0.244306,-0.0655 0.389468,-0.31031 0.325562,-0.5488 l -0.724503,-2.70371 -0.0057,-0.0289 -0.0021,0 -0.979268,-3.65508 c -0.05592,-0.20868 -0.253056,-0.34156 -0.465087,-0.32763 z m -1.581298,3.76772 c -0.779582,0.0864 -1.634493,0.52217 -2.211234,1.14619 -0.645584,0.68792 -0.994773,1.61948 -0.994773,2.61431 0,2.11667 1.597856,3.70416 3.735689,3.70416 1.36525,0 2.44506,-0.60348 3.228226,-1.82056 l -0.455268,-0.25424 c -0.306917,0.45507 -0.518398,0.68806 -0.867648,0.94206 -0.508,0.381 -1.195811,0.62425 -1.746146,0.62425 -0.656165,0 -1.418186,-0.3488 -1.87327,-0.8568 -0.497416,-0.53975 -0.772564,-1.39722 -0.772564,-2.34972 0,-1.58588 0.744363,-2.81935 1.820045,-3.16157 a 1.4925813,1.4925813 0 0 1 0.136943,-0.58808 z"
           id="path1633-9-9" />
      </g>
      <rect
         style="opacity:1;fill:#000000;fill-opacity:1;fill-rule:evenodd;stroke:none;stroke-width:0.75505847;stroke-linecap:butt;stroke-linejoin:miter;stroke-miterlimit:4;stroke-dasharray:none;stroke-opacity:0.37328766;paint-order:markers stroke fill"
         id="rect1209-0-7-8-3"
         width="3.2246094"
         height="0.77534002"
         x="-155.89702"
         y="214.95714"
         rx="0.42124897"
         ry="0.25216648"
         transform="matrix(0.96592583,-0.25881905,0.25881905,0.96592583,0,0)"
         inkscape:export-filename="/home/metadata/path1814-326.png"
         inkscape:export-xdpi="300"
         inkscape:export-ydpi="300" />
      <rect
         style="opacity:1;fill:#000000;fill-opacity:1;fill-rule:evenodd;stroke:none;stroke-width:0.21278575;stroke-linecap:butt;stroke-linejoin:miter;stroke-miterlimit:4;stroke-dasharray:none;stroke-opacity:0.37328766;paint-order:markers stroke fill"
         id="rect1177-6-4-1-6-7"
         width="0.38235447"
         height="0.90621072"
         x="213.60876"
         y="153.81798"
         rx="0.1060669"
         ry="0.099875651"
         transform="matrix(0.25881905,0.96592583,-0.96592583,0.25881905,0,0)"
         inkscape:export-filename="/home/metadata/path1814-326.png"
         inkscape:export-xdpi="300"
         inkscape:export-ydpi="300" />
      <rect
         style="opacity:1;fill:#000000;fill-opacity:1;fill-rule:evenodd;stroke:none;stroke-width:0.21278575;stroke-linecap:butt;stroke-linejoin:miter;stroke-miterlimit:4;stroke-dasharray:none;stroke-opacity:0.37328766;paint-order:markers stroke fill"
         id="rect1177-6-4-1-4-8-3"
         width="0.38235447"
         height="0.90621072"
         x="205.6609"
         y="153.87469"
         rx="0.1060669"
         ry="0.099875651"
         transform="matrix(0.25881905,0.96592583,-0.96592583,0.25881905,0,0)"
         inkscape:export-filename="/home/metadata/path1814-326.png"
         inkscape:export-xdpi="300"
         inkscape:export-ydpi="300" />
      <path
         style="opacity:1;fill:#000000;fill-opacity:1;fill-rule:evenodd;stroke:none;stroke-width:0.32462654;stroke-linecap:butt;stroke-linejoin:miter;stroke-miterlimit:4;stroke-dasharray:none;stroke-opacity:1;paint-order:markers stroke fill"
         id="path1043-3-7-3-2-6-3-2"
         sodipodi:type="arc"
         sodipodi:cx="-95.607201"
         sodipodi:cy="243.29213"
         sodipodi:rx="1.1783887"
         sodipodi:ry="1.1783887"
         sodipodi:start="5.6566819"
         sodipodi:end="5.6518648"
         sodipodi:open="true"
         d="m -94.652608,242.60122 a 1.1783887,1.1783887 0 0 1 -0.262536,1.64467 1.1783887,1.1783887 0 0 1 -1.644982,-0.26056 1.1783887,1.1783887 0 0 1 0.258573,-1.64529 1.1783887,1.1783887 0 0 1 1.645605,0.25659"
         inkscape:export-xdpi="300"
         inkscape:export-ydpi="300"
         inkscape:export-filename="/home/metadata/path1814-326.png" />
      <path
         style="opacity:0.36400003;fill:#000000;fill-opacity:1;fill-rule:evenodd;stroke:none;stroke-width:0.33739591;stroke-linecap:butt;stroke-linejoin:miter;stroke-miterlimit:4;stroke-dasharray:none;stroke-opacity:0.37328766;paint-order:markers stroke fill"
         id="path1814-3-6"
         sodipodi:type="arc"
         sodipodi:cx="-96.466927"
         sodipodi:cy="249.8716"
         sodipodi:rx="4.9196591"
         sodipodi:ry="0.25890893"
         sodipodi:start="5.6566819"
         sodipodi:end="5.6518648"
         sodipodi:open="true"
         d="m -92.481596,249.71979 a 4.9196591,0.25890893 0 0 1 -1.096059,0.36136 4.9196591,0.25890893 0 0 1 -6.867645,-0.0573 4.9196591,0.25890893 0 0 1 1.07952,-0.36149 4.9196591,0.25890893 0 0 1 6.870243,0.0564"
         inkscape:export-filename="/home/metadata/path1814-326.png"
         inkscape:export-xdpi="300"
         inkscape:export-ydpi="300" />
    </g>
  </g>
</svg>
