<?xml version="1.0" encoding="UTF-8" standalone="no"?>
<!-- Created with Inkscape (http://www.inkscape.org/) -->

<svg
   xmlns:dc="http://purl.org/dc/elements/1.1/"
   xmlns:cc="http://creativecommons.org/ns#"
   xmlns:rdf="http://www.w3.org/1999/02/22-rdf-syntax-ns#"
   xmlns:svg="http://www.w3.org/2000/svg"
   xmlns="http://www.w3.org/2000/svg"
   xmlns:sodipodi="http://sodipodi.sourceforge.net/DTD/sodipodi-0.dtd"
   xmlns:inkscape="http://www.inkscape.org/namespaces/inkscape"
   width="275.46625"
   height="43.969799"
   viewBox="0 0 72.883776 11.633676"
   version="1.1"
   id="svg8"
   inkscape:version="0.92.4 (unknown)"
   sodipodi:docname="wsiprocess.svg">
  <defs
     id="defs2" />
  <sodipodi:namedview
     id="base"
     pagecolor="#ffffff"
     bordercolor="#666666"
     borderopacity="1.0"
     inkscape:pageopacity="0.0"
     inkscape:pageshadow="2"
     inkscape:zoom="8"
     inkscape:cx="178.45939"
     inkscape:cy="58.260835"
     inkscape:document-units="mm"
     inkscape:current-layer="layer1-3"
     showgrid="false"
     inkscape:window-width="2495"
     inkscape:window-height="1416"
     inkscape:window-x="65"
     inkscape:window-y="24"
     inkscape:window-maximized="1"
     units="px"
     fit-margin-top="0"
     fit-margin-left="0"
     fit-margin-right="0"
     fit-margin-bottom="0" />
  <metadata
     id="metadata5">
    <rdf:RDF>
      <cc:Work
         rdf:about="">
        <dc:format>image/svg+xml</dc:format>
        <dc:type
           rdf:resource="http://purl.org/dc/dcmitype/StillImage" />
        <dc:title></dc:title>
      </cc:Work>
    </rdf:RDF>
  </metadata>
  <g
     inkscape:label="レイヤー 1"
     inkscape:groupmode="layer"
     id="layer1"
     transform="translate(-0.2029,-285.23003)">
    <g
       id="layer1-3"
       inkscape:label="レイヤー 1"
       transform="translate(101.69631,46.728632)">
      <g
         transform="translate(-73.550442,64.970889)"
         aria-label="WSIPROCESS "
         style="font-style:normal;font-variant:normal;font-weight:normal;font-stretch:normal;font-size:10.58333302px;line-height:0;font-family:'Tlwg Typo';-inkscape-font-specification:'Tlwg Typo';letter-spacing:0px;word-spacing:0px;fill:#000000;fill-opacity:1;stroke:none;stroke-width:0.26458332"
         id="text877-3-2-6"
         inkscape:export-filename="/home/metadata/path1814-326.png"
         inkscape:export-xdpi="300"
         inkscape:export-ydpi="300">
        <path
           inkscape:connector-curvature="0"
           d="m -20.471138,185.02637 2.053167,-5.715 c 0.338666,-0.93134 0.529166,-1.12184 1.2065,-1.16417 v -0.32808 h -2.667 v 0.32808 c 0.391583,0.0529 0.433916,0.0635 0.529166,0.10583 0.211667,0.10584 0.34925,0.3175 0.34925,0.53975 0,0.10584 -0.03175,0.28575 -0.0635,0.39159 l -1.418166,4.40266 -1.545167,-4.70958 c -0.03175,-0.0741 -0.04233,-0.14817 -0.04233,-0.24342 0,-0.21166 0.116416,-0.35983 0.328083,-0.41275 0.116417,-0.0318 0.15875,-0.0423 0.4445,-0.0741 v -0.32808 h -2.899833 v 0.32808 c 0.6985,0.15875 0.963083,0.45508 1.23825,1.42875 l -1.259417,4.03225 -1.545167,-4.65667 c -0.04233,-0.11641 -0.0635,-0.23283 -0.0635,-0.33866 0,-0.30692 0.179917,-0.42334 0.762,-0.46567 v -0.32808 h -2.878666 v 0.32808 c 0.73025,0.17992 0.804333,0.254 1.132417,1.16417 l 1.989666,5.715 h 0.624417 l 1.545166,-4.62492 1.55575,4.62492 z"
           style="font-style:normal;font-variant:normal;font-weight:normal;font-stretch:normal;font-family:'URW Bookman L';-inkscape-font-specification:'URW Bookman L';stroke-width:0.26458332"
           id="path1621-6-8" />
        <path
           inkscape:connector-curvature="0"
           d="m -11.899299,177.81912 h -0.381 l -0.127,0.381 c -0.592667,-0.35984 -1.195917,-0.51859 -2.00025,-0.51859 -0.6985,0 -1.259417,0.16934 -1.693334,0.508 -0.455083,0.35984 -0.73025,0.87842 -0.73025,1.38642 0,0.41275 0.1905,0.85725 0.465667,1.143 0.328083,0.32808 0.889,0.58208 1.7145,0.79375 l 1.418167,0.35983 c 1.04775,0.254 1.407583,0.5715 1.407583,1.2065 0,0.89959 -0.8255,1.57692 -1.915583,1.57692 -1.217084,0 -2.286,-0.762 -3.026834,-2.18017 l -0.391583,0.127 0.687917,2.42359 h 0.391583 l 0.201083,-0.52917 c 0.645584,0.45508 1.344084,0.66675 2.19075,0.66675 1.651,0 2.942167,-1.00542 2.942167,-2.27542 0,-0.381 -0.09525,-0.78316 -0.254,-1.02658 -0.3175,-0.508 -0.846667,-0.79375 -1.989667,-1.06892 l -1.322916,-0.3175 c -1.026584,-0.254 -1.439334,-0.58208 -1.439334,-1.15358 0,-0.635 0.677334,-1.13242 1.55575,-1.13242 1.016,0 1.862667,0.53975 2.6035,1.67217 l 0.338667,-0.127 z"
           style="font-style:normal;font-variant:normal;font-weight:normal;font-stretch:normal;font-family:'URW Bookman L';-inkscape-font-specification:'URW Bookman L';stroke-width:0.26458332"
           id="path1623-4-9" />
        <path
           inkscape:connector-curvature="0"
           d="m -8.1828969,179.34312 c 0,-0.87842 0.1164166,-1.06892 0.6879166,-1.16417 l 0.2116667,-0.0317 v -0.32808 h -2.8575004 v 0.32808 l 0.2116671,0.0317 c 0.5715,0.0953 0.6879167,0.28575 0.6879167,1.16417 v 4.15925 c 0,0.87841 -0.1164167,1.06891 -0.6879167,1.16416 l -0.2116671,0.0318 v 0.32809 h 2.8575004 v -0.32809 l -0.2116667,-0.0318 c -0.5715,-0.0952 -0.6879166,-0.28575 -0.6879166,-1.16416 z"
           style="font-style:normal;font-variant:normal;font-weight:normal;font-stretch:normal;font-family:'URW Bookman L';-inkscape-font-specification:'URW Bookman L';stroke-width:0.26458332"
           id="path1625-1-0" />
        <path
           inkscape:connector-curvature="0"
           d="m -4.5333006,181.94662 h 1.49225 c 0.6985,0 1.3334999,-0.14817 1.7462499,-0.40217 0.55033334,-0.34925 0.91016666,-1.016 0.91016666,-1.70392 0,-1.24883 -1.01599996,-2.02141 -2.64583326,-2.02141 h -3.5136666 v 0.32808 l 0.2645834,0.0317 c 0.5503333,0.0741 0.6879166,0.29633 0.6879166,1.16417 v 4.15925 c 0,0.86783 -0.1375833,1.09008 -0.6879166,1.16416 l -0.2645834,0.0318 v 0.32809 h 3.0903333 v -0.32809 l -0.3915833,-0.0318 c -0.5291667,-0.0423 -0.6879167,-0.30691 -0.6879167,-1.16416 z m 0,-0.45509 v -2.55058 c 0,-0.5715 0.1905,-0.67733 1.2065,-0.67733 0.7196666,0 1.1535833,0.13758 1.4604999,0.47625 0.2645834,0.28575 0.4021667,0.67733 0.4021667,1.13241 0,0.4445 -0.1375833,0.8255 -0.4021667,1.12184 -0.3175,0.35983 -0.7090833,0.49741 -1.3440833,0.49741 z"
           style="font-style:normal;font-variant:normal;font-weight:normal;font-stretch:normal;font-family:'URW Bookman L';-inkscape-font-specification:'URW Bookman L';stroke-width:0.26458332"
           id="path1627-2-6" />
        <path
           inkscape:connector-curvature="0"
           d="m 4.8026883,181.52328 c 0.6561666,-0.0952 0.9524999,-0.21166 1.3017499,-0.49741 0.4233333,-0.33867 0.6561667,-0.83609 0.6561667,-1.38642 0,-1.13242 -0.92075,-1.82033 -2.44475,-1.82033 H 0.0084384 v 0.32808 l 0.26458332,0.0317 c 0.55033332,0.0741 0.68791665,0.29633 0.68791665,1.16417 v 4.15925 c 0,0.86783 -0.13758333,1.09008 -0.68791665,1.16416 l -0.26458332,0.0318 v 0.32809 h 3.0797499 v -0.32809 l -0.381,-0.0318 c -0.53975,-0.0529 -0.6879166,-0.30691 -0.6879166,-1.16416 v -1.87325 h 1.5239999 l 2.38125,3.39725 h 1.7674166 v -0.32809 c -0.5185834,-0.0953 -0.8043333,-0.26458 -1.1324167,-0.68791 z m -2.7834166,-0.34925 v -2.29658 c 0,-0.23283 0.084667,-0.37042 0.2751666,-0.45508 0.2116667,-0.0952 0.7514167,-0.16934 1.2911667,-0.16934 1.3546666,0 2.0319999,0.47625 2.0319999,1.42875 0,0.46567 -0.2010833,0.889 -0.5503333,1.16417 -0.2963333,0.23283 -0.6773333,0.32808 -1.27,0.32808 z"
           style="font-style:normal;font-variant:normal;font-weight:normal;font-stretch:normal;font-family:'URW Bookman L';-inkscape-font-specification:'URW Bookman L';stroke-width:0.26458332"
           id="path1629-8-8" />
        <path
           inkscape:connector-curvature="0"
           d="m 11.583461,177.68153 c -2.1272498,0 -3.8099998,1.64042 -3.8099998,3.71475 0,2.13784 1.6298333,3.76767 3.7676668,3.76767 1.164166,0 2.307166,-0.52917 3.005666,-1.38642 0.518584,-0.635 0.783167,-1.43933 0.783167,-2.32833 0,-2.18017 -1.576917,-3.76767 -3.7465,-3.76767 z m -0.02117,0.508 c 1.545167,0 2.518834,1.28059 2.518834,3.32317 0,1.905 -0.994834,3.14325 -2.529417,3.14325 -1.545167,0 -2.5294165,-1.27 -2.5294165,-3.24908 0,-1.94734 1.0054165,-3.21734 2.5399995,-3.21734 z"
           style="font-style:normal;font-variant:normal;font-weight:normal;font-stretch:normal;font-family:'URW Bookman L';-inkscape-font-specification:'URW Bookman L';stroke-width:0.26458332"
           id="path1631-8-7" />
        <path
           inkscape:connector-curvature="0"
           style="font-style:normal;font-variant:normal;font-weight:normal;font-stretch:normal;font-family:'URW Bookman L';-inkscape-font-specification:'URW Bookman L';stroke-width:0.99999994"
           d="m 463.86914,833.99219 c -0.11448,0.008 -0.23028,0.0257 -0.3457,0.0566 l -1.79102,0.48047 c -0.92335,0.24741 -1.47199,1.17283 -1.23047,2.07422 l 2.24024,8.35937 a 5.6412524,5.6412524 0 0 1 4.82031,2.30078 l 0.0156,0.0234 a 5.6412524,5.6412524 0 0 1 -1.25585,7.87305 5.6412524,5.6412524 0 0 1 -0.73047,0.4414 l 1.3789,5.14453 c 0.24153,0.90139 1.18016,1.4271 2.10352,1.17969 l 1.79101,-0.47851 c 0.92336,-0.24742 1.472,-1.17283 1.23047,-2.07422 l -2.73828,-10.21875 -0.0215,-0.10938 h -0.008 l -3.70117,-13.81445 c -0.21133,-0.78872 -0.95643,-1.29093 -1.75781,-1.23828 z m -5.97656,14.24023 c -2.94645,0.32644 -6.17761,1.97354 -8.35742,4.33203 -2.44,2.60002 -3.75977,6.12088 -3.75977,9.88086 0,8.00002 6.03914,14 14.11914,14 5.16,0 9.24117,-2.28087 12.20117,-6.88086 l -1.7207,-0.96093 c -1.16,1.71998 -1.9593,2.60054 -3.2793,3.56054 -1.92,1.44 -4.5196,2.35938 -6.59961,2.35938 -2.47999,0 -5.36007,-1.31828 -7.08007,-3.23828 -1.88,-2.04 -2.91993,-5.28086 -2.91993,-8.88086 0,-5.99387 2.81334,-10.65581 6.87891,-11.94922 a 5.6412524,5.6412524 0 0 1 0.51758,-2.22266 z"
           transform="matrix(0.26458333,0,0,0.26458333,-101.69631,-46.728632)"
           id="path1633-9-9" />
        <path
           inkscape:connector-curvature="0"
           d="M 29.988043,177.81912 H 23.94496 v 0.32808 l 0.264583,0.0317 c 0.550334,0.0741 0.687917,0.29633 0.687917,1.16417 v 4.15925 c 0,0.86783 -0.137583,1.09008 -0.687917,1.16416 l -0.264583,0.0318 v 0.32809 h 6.170083 l 0.963083,-2.25425 -0.328083,-0.14817 c -1.153583,1.48167 -2.021417,1.94733 -3.598333,1.94733 -0.529167,0 -0.889,-0.0952 -1.058333,-0.29633 -0.09525,-0.127 -0.137584,-0.29633 -0.137584,-0.635 v -2.23308 h 0.783167 c 0.836083,0 1.195916,0.37041 1.30175,1.36525 h 0.359833 V 179.6077 H 28.04071 c -0.148167,1.10067 -0.381,1.34408 -1.280583,1.34408 h -0.804334 v -1.79916 c 0,-0.67734 0.275167,-0.87842 1.2065,-0.87842 1.439333,0 2.243667,0.40217 3.217333,1.5875 l 0.338667,-0.13758 z"
           style="font-style:normal;font-variant:normal;font-weight:normal;font-stretch:normal;font-family:'URW Bookman L';-inkscape-font-specification:'URW Bookman L';stroke-width:0.26458332"
           id="path1635-2-0" />
        <path
           inkscape:connector-curvature="0"
           d="m 36.800568,177.81912 h -0.381 l -0.127,0.381 c -0.592667,-0.35984 -1.195917,-0.51859 -2.00025,-0.51859 -0.6985,0 -1.259417,0.16934 -1.693333,0.508 -0.455084,0.35984 -0.73025,0.87842 -0.73025,1.38642 0,0.41275 0.1905,0.85725 0.465666,1.143 0.328084,0.32808 0.889,0.58208 1.7145,0.79375 l 1.418167,0.35983 c 1.04775,0.254 1.407583,0.5715 1.407583,1.2065 0,0.89959 -0.8255,1.57692 -1.915583,1.57692 -1.217083,0 -2.286,-0.762 -3.026833,-2.18017 l -0.391584,0.127 0.687917,2.42359 h 0.391583 l 0.201084,-0.52917 c 0.645583,0.45508 1.344083,0.66675 2.19075,0.66675 1.651,0 2.942166,-1.00542 2.942166,-2.27542 0,-0.381 -0.09525,-0.78316 -0.254,-1.02658 -0.3175,-0.508 -0.846666,-0.79375 -1.989666,-1.06892 l -1.322917,-0.3175 c -1.026583,-0.254 -1.439333,-0.58208 -1.439333,-1.15358 0,-0.635 0.677333,-1.13242 1.55575,-1.13242 1.016,0 1.862666,0.53975 2.603499,1.67217 l 0.338667,-0.127 z"
           style="font-style:normal;font-variant:normal;font-weight:normal;font-stretch:normal;font-family:'URW Bookman L';-inkscape-font-specification:'URW Bookman L';stroke-width:0.26458332"
           id="path1637-8-3" />
        <path
           inkscape:connector-curvature="0"
           d="m 43.787224,177.81912 h -0.381 l -0.127,0.381 c -0.592667,-0.35984 -1.195917,-0.51859 -2.00025,-0.51859 -0.6985,0 -1.259417,0.16934 -1.693333,0.508 -0.455083,0.35984 -0.73025,0.87842 -0.73025,1.38642 0,0.41275 0.1905,0.85725 0.465666,1.143 0.328084,0.32808 0.889,0.58208 1.7145,0.79375 l 1.418167,0.35983 c 1.04775,0.254 1.407583,0.5715 1.407583,1.2065 0,0.89959 -0.8255,1.57692 -1.915583,1.57692 -1.217083,0 -2.286,-0.762 -3.026833,-2.18017 l -0.391583,0.127 0.687916,2.42359 h 0.391583 l 0.201084,-0.52917 c 0.645583,0.45508 1.344083,0.66675 2.19075,0.66675 1.651,0 2.942166,-1.00542 2.942166,-2.27542 0,-0.381 -0.09525,-0.78316 -0.254,-1.02658 -0.3175,-0.508 -0.846666,-0.79375 -1.989666,-1.06892 l -1.322917,-0.3175 c -1.026583,-0.254 -1.439333,-0.58208 -1.439333,-1.15358 0,-0.635 0.677333,-1.13242 1.55575,-1.13242 1.016,0 1.862666,0.53975 2.6035,1.67217 l 0.338666,-0.127 z"
           style="font-style:normal;font-variant:normal;font-weight:normal;font-stretch:normal;font-family:'URW Bookman L';-inkscape-font-specification:'URW Bookman L';stroke-width:0.26458332"
           id="path1639-8-3" />
      </g>
      <rect
         style="opacity:1;fill:#000000;fill-opacity:1;fill-rule:evenodd;stroke:none;stroke-width:0.75505847;stroke-linecap:butt;stroke-linejoin:miter;stroke-miterlimit:4;stroke-dasharray:none;stroke-opacity:0.37328766;paint-order:markers stroke fill"
         id="rect1209-0-7-8-3"
         width="3.2246094"
         height="0.77534002"
         x="-114.49481"
         y="226.05075"
         rx="0.42124897"
         ry="0.25216648"
         transform="rotate(-15)"
         inkscape:export-filename="/home/metadata/path1814-326.png"
         inkscape:export-xdpi="300"
         inkscape:export-ydpi="300" />
      <rect
         style="opacity:1;fill:#000000;fill-opacity:1;fill-rule:evenodd;stroke:none;stroke-width:0.21278575;stroke-linecap:butt;stroke-linejoin:miter;stroke-miterlimit:4;stroke-dasharray:none;stroke-opacity:0.37328766;paint-order:markers stroke fill"
         id="rect1177-6-4-1-6-7"
         width="0.38235447"
         height="0.90621072"
         x="224.70238"
         y="112.41577"
         rx="0.1060669"
         ry="0.099875651"
         transform="rotate(75)"
         inkscape:export-filename="/home/metadata/path1814-326.png"
         inkscape:export-xdpi="300"
         inkscape:export-ydpi="300" />
      <rect
         style="opacity:1;fill:#000000;fill-opacity:1;fill-rule:evenodd;stroke:none;stroke-width:0.21278575;stroke-linecap:butt;stroke-linejoin:miter;stroke-miterlimit:4;stroke-dasharray:none;stroke-opacity:0.37328766;paint-order:markers stroke fill"
         id="rect1177-6-4-1-4-8-3"
         width="0.38235447"
         height="0.90621072"
         x="216.75452"
         y="112.4725"
         rx="0.1060669"
         ry="0.099875651"
         transform="rotate(75)"
         inkscape:export-filename="/home/metadata/path1814-326.png"
         inkscape:export-xdpi="300"
         inkscape:export-ydpi="300" />
      <path
         style="opacity:1;fill:#000000;fill-opacity:1;fill-rule:evenodd;stroke:none;stroke-width:0.32462654;stroke-linecap:butt;stroke-linejoin:miter;stroke-miterlimit:4;stroke-dasharray:none;stroke-opacity:1;paint-order:markers stroke fill"
         id="path1043-3-7-3-2-6-3-2"
         sodipodi:type="arc"
         sodipodi:cx="-52.744659"
         sodipodi:cy="243.29213"
         sodipodi:rx="1.1783887"
         sodipodi:ry="1.1783887"
         sodipodi:start="5.6566819"
         sodipodi:end="5.6518648"
         sodipodi:open="true"
         d="m -51.790067,242.60122 a 1.1783887,1.1783887 0 0 1 -0.262535,1.64467 1.1783887,1.1783887 0 0 1 -1.644983,-0.26056 1.1783887,1.1783887 0 0 1 0.258573,-1.64529 1.1783887,1.1783887 0 0 1 1.645605,0.25659"
         inkscape:export-xdpi="300"
         inkscape:export-ydpi="300"
         inkscape:export-filename="/home/metadata/path1814-326.png" />
      <path
         style="opacity:0.36400003;fill:#000000;fill-opacity:1;fill-rule:evenodd;stroke:none;stroke-width:0.33739591;stroke-linecap:butt;stroke-linejoin:miter;stroke-miterlimit:4;stroke-dasharray:none;stroke-opacity:0.37328766;paint-order:markers stroke fill"
         id="path1814-3-6"
         sodipodi:type="arc"
         sodipodi:cx="-53.604385"
         sodipodi:cy="249.8716"
         sodipodi:rx="4.9196591"
         sodipodi:ry="0.25890893"
         sodipodi:start="5.6566819"
         sodipodi:end="5.6518648"
         sodipodi:open="true"
         d="m -49.619055,249.71979 a 4.9196591,0.25890893 0 0 1 -1.096059,0.36136 4.9196591,0.25890893 0 0 1 -6.867643,-0.0573 4.9196591,0.25890893 0 0 1 1.079518,-0.36149 4.9196591,0.25890893 0 0 1 6.870243,0.0564"
         inkscape:export-filename="/home/metadata/path1814-326.png"
         inkscape:export-xdpi="300"
         inkscape:export-ydpi="300" />
    </g>
  </g>
</svg>
